<svg width="1600" height="900" viewBox="0 0 1600 900" fill="none" xmlns="http://www.w3.org/2000/svg">
  <defs>
    <radialGradient id="mainGradient" cx="0.3" cy="0.3" r="1.2">
      <stop offset="0%" stop-color="#FF8FA3"/>
      <stop offset="50%" stop-color="#FF6B9D"/>
      <stop offset="100%" stop-color="#E91E63"/>
    </radialGradient>
    <linearGradient id="cakeGradient" x1="0%" y1="0%" x2="0%" y2="100%">
      <stop offset="0%" stop-color="#FFB6C1"/>
      <stop offset="100%" stop-color="#FF69B4"/>
    </linearGradient>
  </defs>
  
  <!-- Main background -->
  <rect width="1600" height="900" fill="url(#mainGradient)"/>
  
  <!-- Curved white section -->
  <path d="M800 0 Q1200 200 1600 0 V900 Q1200 700 800 900 Z" fill="#F8F9FA" opacity="0.95"/>
  
  <!-- Confetti scattered around -->
  <g opacity="0.7">
    <!-- Yellow confetti -->
    <rect x="200" y="150" width="8" height="8" fill="#F1C40F" transform="rotate(45 204 154)"/>
    <rect x="350" y="80" width="6" height="6" fill="#F39C12" transform="rotate(30 353 83)"/>
    <rect x="180" y="250" width="10" height="10" fill="#F1C40F" transform="rotate(60 185 255)"/>
    <rect x="420" y="180" width="7" height="7" fill="#F39C12" transform="rotate(15 423.5 183.5)"/>
    <rect x="150" y="320" width="5" height="5" fill="#F1C40F" transform="rotate(75 152.5 322.5)"/>
    
    <!-- Blue confetti -->
    <rect x="250" y="100" width="8" height="8" fill="#3498DB" transform="rotate(20 254 104)"/>
    <rect x="380" y="200" width="6" height="6" fill="#2980B9" transform="rotate(45 383 203)"/>
    <rect x="320" y="300" width="9" height="9" fill="#3498DB" transform="rotate(70 324.5 304.5)"/>
    <rect x="480" y="120" width="7" height="7" fill="#2980B9" transform="rotate(35 483.5 123.5)"/>
    
    <!-- Red confetti -->
    <rect x="160" y="180" width="6" height="6" fill="#E74C3C" transform="rotate(50 163 183)"/>
    <rect x="400" y="250" width="8" height="8" fill="#C0392B" transform="rotate(25 404 254)"/>
    <rect x="280" y="150" width="5" height="5" fill="#E74C3C" transform="rotate(80 282.5 152.5)"/>
    
    <!-- Green confetti -->
    <rect x="220" y="280" width="7" height="7" fill="#2ECC71" transform="rotate(40 223.5 283.5)"/>
    <rect x="460" y="300" width="6" height="6" fill="#27AE60" transform="rotate(65 463 303)"/>
  </g>
  
  <!-- Party decorations in upper left -->
  <!-- Party hat -->
  <g transform="translate(180, 60)">
    <path d="M0 40 L20 0 L40 40 Z" fill="#3498DB"/>
    <circle cx="8" cy="30" r="2" fill="#F1C40F"/>
    <circle cx="20" cy="25" r="2" fill="#E74C3C"/>
    <circle cx="32" cy="30" r="2" fill="#2ECC71"/>
    <!-- Party hat decorative top -->
    <circle cx="20" cy="0" r="3" fill="#F39C12"/>
  </g>
  
  <!-- Noisemaker -->
  <g transform="translate(120, 40)">
    <rect x="0" y="15" width="30" height="8" fill="#F39C12" rx="4"/>
    <path d="M30 15 L45 5 L45 31 Z" fill="#E74C3C"/>
    <!-- Stripes on noisemaker -->
    <rect x="5" y="15" width="2" height="8" fill="#E67E22"/>
    <rect x="12" y="15" width="2" height="8" fill="#E67E22"/>
    <rect x="19" y="15" width="2" height="8" fill="#E67E22"/>
    <rect x="26" y="15" width="2" height="8" fill="#E67E22"/>
  </g>
  
  <!-- Birthday cake (main centerpiece) -->
  <g transform="translate(250, 300)">
    <!-- Cake plate -->
    <ellipse cx="60" cy="180" rx="80" ry="12" fill="#F8F9FA"/>
    <ellipse cx="60" cy="178" rx="80" ry="12" fill="#E8E9EA"/>
    
    <!-- Bottom cake layer -->
    <rect x="10" y="130" width="100" height="50" fill="url(#cakeGradient)" rx="5"/>
    <ellipse cx="60" cy="130" rx="50" ry="8" fill="#FFB6C1"/>
    
    <!-- Chocolate layer -->
    <rect x="15" y="135" width="90" height="15" fill="#8B4513"/>
    <ellipse cx="60" cy="135" rx="45" ry="6" fill="#A0522D"/>
    
    <!-- Middle cake layer -->
    <rect x="20" y="90" width="80" height="40" fill="#F1C40F" rx="4"/>
    <ellipse cx="60" cy="90" rx="40" ry="6" fill="#F39C12"/>
    
    <!-- Top cake layer -->
    <rect x="30" y="60" width="60" height="30" fill="#FF69B4" rx="3"/>
    <ellipse cx="60" cy="60" rx="30" ry="5" fill="#FF1493"/>
    
    <!-- Candles -->
    <rect x="40" y="45" width="2" height="15" fill="#FFF8DC"/>
    <rect x="50" y="45" width="2" height="15" fill="#FFF8DC"/>
    <rect x="60" y="45" width="2" height="15" fill="#FFF8DC"/>
    <rect x="70" y="45" width="2" height="15" fill="#FFF8DC"/>
    <rect x="80" y="45" width="2" height="15" fill="#FFF8DC"/>
    
    <!-- Candle flames -->
    <ellipse cx="41" cy="42" rx="2" ry="3" fill="#FF4500"/>
    <ellipse cx="51" cy="42" rx="2" ry="3" fill="#FF4500"/>
    <ellipse cx="61" cy="42" rx="2" ry="3" fill="#FF4500"/>
    <ellipse cx="71" cy="42" rx="2" ry="3" fill="#FF4500"/>
    <ellipse cx="81" cy="42" rx="2" ry="3" fill="#FF4500"/>
    
    <!-- Decorative dots on cake -->
    <circle cx="25" cy="110" r="3" fill="#FFF"/>
    <circle cx="95" cy="110" r="3" fill="#FFF"/>
    <circle cx="35" cy="75" r="2" fill="#FFF"/>
    <circle cx="85" cy="75" r="2" fill="#FFF"/>
  </g>
  
  <!-- Cupcakes -->
  <g transform="translate(420, 450)">
    <!-- Blue cupcake -->
    <path d="M0 20 L0 35 Q0 40 5 40 L25 40 Q30 40 30 35 L30 20 Q25 15 15 15 Q5 15 0 20 Z" fill="#87CEEB"/>
    <rect x="5" y="35" width="20" height="20" fill="#DEB887" rx="2"/>
    <circle cx="15" cy="12" r="2" fill="#DC143C"/>
    
    <!-- Pink cupcake -->
    <g transform="translate(50, 0)">
      <path d="M0 20 L0 35 Q0 40 5 40 L25 40 Q30 40 30 35 L30 20 Q25 15 15 15 Q5 15 0 20 Z" fill="#FFB6C1"/>
      <rect x="5" y="35" width="20" height="20" fill="#CD853F" rx="2"/>
      <!-- Decorative stars on frosting -->
      <polygon points="15,18 16,21 19,21 16.5,23 17.5,26 15,24 12.5,26 13.5,23 11,21 14,21" fill="#FFD700"/>
      <polygon points="20,25 21,27 23,27 21.5,28.5 22,30.5 20,29.5 18,30.5 18.5,28.5 17,27 19,27" fill="#FFD700"/>
      <polygon points="10,25 11,27 13,27 11.5,28.5 12,30.5 10,29.5 8,30.5 8.5,28.5 7,27 9,27" fill="#FFD700"/>
    </g>
    
    <!-- Chocolate cupcake -->
    <g transform="translate(100, 0)">
      <path d="M0 20 L0 35 Q0 40 5 40 L25 40 Q30 40 30 35 L30 20 Q25 15 15 15 Q5 15 0 20 Z" fill="#F5F5DC"/>
      <rect x="5" y="35" width="20" height="20" fill="#8B4513" rx="2"/>
      <!-- Chocolate chips -->
      <circle cx="12" cy="22" r="1.5" fill="#654321"/>
      <circle cx="18" cy="25" r="1.5" fill="#654321"/>
      <circle cx="15" cy="28" r="1.5" fill="#654321"/>
    </g>
  </g>
  
  <!-- Additional scattered confetti -->
  <g opacity="0.6">
    <circle cx="500" cy="200" r="4" fill="#E74C3C"/>
    <circle cx="550" cy="350" r="3" fill="#F1C40F"/>
    <circle cx="380" cy="100" r="5" fill="#3498DB"/>
    <circle cx="320" cy="400" r="3" fill="#2ECC71"/>
    <circle cx="480" cy="480" r="4" fill="#9B59B6"/>
  </g>
</svg>